<svg id="Layer_1" data-name="Layer 1" xmlns="http://www.w3.org/2000/svg" viewBox="0 0 600 600"><circle cx="300" cy="300" r="300" fill="#6706ce"/><path d="M279.34,267.67c27.7-21.59,15.56-51.11-30.24-45.4-53,6.6-120.61,58.45-137.46,120.7a127.55,127.55,0,0,0-3.19,15.5A120.77,120.77,0,0,0,107.28,374a113.16,113.16,0,0,0,.89,15.4,111.31,111.31,0,0,0,3,15.14,112.82,112.82,0,0,0,5.09,14.76,118.54,118.54,0,0,0,7.24,14.26,126.45,126.45,0,0,0,9.4,13.64c11.67,14.78,26.65,27.16,42.63,37,3.46,2.14,7.18,4.22,11.25,4.41,5.93.28,10.44-4.44,10.68-10.23a11.16,11.16,0,0,0-1.46-6c-13.43-23.67-24.52-58.81-22.24-81C179.43,336.29,235.28,302,279.34,267.67Z" fill="#fff" fill-rule="evenodd"/><path d="M500.28,363.84a17.19,17.19,0,0,0-17.5-10.15c-5,.45-9.17,3.13-12.55,6.68-5.5,5-9.31,11.89-13.44,17.91-4.85,7.08-9.93,14-15.41,20.63-10.8,13-23.24,24.79-37.76,33.61-24.63,15-47.17,22.12-74.27,8.31-19.83-15.86-13.13-34.6,3.3-49.87,28.07-26.1,61.92-44.42,88.51-72.44,25-26.34,47-59.12,52.24-95.78a103.58,103.58,0,0,0-.17-31c-7.8-48.3-51.48-79-95.59-92-56.17-16.6-118-11.73-171.16,12.83a232.82,232.82,0,0,0-59.94,40,249.79,249.79,0,0,0-22.1,23.21c-11.1,13.27-23.73,28.76-25.89,46.56-1.33,11,8.58,18.59,19,17.18,7-.94,13.16-5.14,18.3-9.73,6-5.34,11.45-11.26,17.21-16.83,17.38-16.81,35.94-32.46,58-42.79,28.12-13.15,59.61-19.54,90.61-16.31,31.42,3.27,69.67,17.44,81.14,50,12,34-13.73,67.36-37.18,89.07-38.3,35.44-111,71.63-103,134.18,4.29,33.52,28.4,62.19,59.23,75,53.66,22.23,111.75-4.84,148.89-46.17,12.46-13.24,30.38-35.82,46.68-69.46C500.61,379.84,503.23,370.87,500.28,363.84Z" fill="#fff" fill-rule="evenodd"/></svg>